<svg width="1600" height="720" viewBox="0 0 1600 720" fill="none" xmlns="http://www.w3.org/2000/svg">
  <defs>
    <linearGradient id="bg" x1="80" y1="60" x2="1500" y2="660" gradientUnits="userSpaceOnUse">
      <stop stop-color="#061B22"/>
      <stop offset="0.5" stop-color="#0B2F3A"/>
      <stop offset="1" stop-color="#102C52"/>
    </linearGradient>
    <linearGradient id="panel" x1="260" y1="120" x2="1320" y2="620" gradientUnits="userSpaceOnUse">
      <stop stop-color="#0D1117" stop-opacity="0.9"/>
      <stop offset="1" stop-color="#101820" stop-opacity="0.74"/>
    </linearGradient>
    <linearGradient id="accent" x1="238" y1="150" x2="1324" y2="150" gradientUnits="userSpaceOnUse">
      <stop stop-color="#19D3A2"/>
      <stop offset="0.45" stop-color="#58D4FF"/>
      <stop offset="1" stop-color="#8BC2FF"/>
    </linearGradient>
    <filter id="shadow" x="180" y="80" width="1260" height="580" filterUnits="userSpaceOnUse" color-interpolation-filters="sRGB">
      <feDropShadow dx="0" dy="20" stdDeviation="28" flood-color="#021216" flood-opacity="0.35"/>
    </filter>
  </defs>
  <rect width="1600" height="720" fill="url(#bg)"/>
  <circle cx="1320" cy="114" r="240" fill="#15E0A2" fill-opacity="0.08"/>
  <circle cx="190" cy="620" r="260" fill="#5ABFFF" fill-opacity="0.08"/>
  <g filter="url(#shadow)">
    <rect x="220" y="110" width="1160" height="500" rx="28" fill="url(#panel)" stroke="#FFFFFF" stroke-opacity="0.12"/>
  </g>
  <rect x="220" y="110" width="1160" height="14" rx="7" fill="url(#accent)"/>
  <text x="286" y="220" fill="#E8FFF8" font-size="60" font-family="Segoe UI, Arial, sans-serif" font-weight="700">CEFileManager</text>
  <text x="286" y="278" fill="#8BE9CC" font-size="30" font-family="Segoe UI, Arial, sans-serif" font-weight="600">Turn Android into a CLI workstation + APK lab</text>
  <text x="286" y="342" fill="#D4E7F2" font-size="24" font-family="Consolas, Monaco, monospace">[ Terminal ] [ Codex ] [ Claude ] [ APK ] [ XML ] [ DEX ] [ Root ] [ Shizuku ]</text>
  <text x="286" y="404" fill="#A8C9D8" font-size="24" font-family="Segoe UI, Arial, sans-serif">Run command-line workflows, edit app packages, inspect internals, and ship changes from one phone.</text>
  <rect x="286" y="456" width="364" height="88" rx="18" fill="#14B88A"/>
  <text x="316" y="510" fill="#03151A" font-size="30" font-family="Segoe UI, Arial, sans-serif" font-weight="700">Mobile Engineering Ready</text>
  <rect x="760" y="190" width="520" height="300" rx="22" fill="#07161B" stroke="#FFFFFF" stroke-opacity="0.10"/>
  <rect x="790" y="230" width="460" height="18" rx="9" fill="#11303A"/>
  <rect x="790" y="270" width="266" height="18" rx="9" fill="#1C5E74"/>
  <rect x="790" y="314" width="420" height="14" rx="7" fill="#163640"/>
  <rect x="790" y="348" width="388" height="14" rx="7" fill="#163640"/>
  <rect x="790" y="382" width="442" height="14" rx="7" fill="#163640"/>
  <text x="812" y="284" fill="#90F4DA" font-size="22" font-family="Consolas, Monaco, monospace">$ codex</text>
  <text x="812" y="430" fill="#91C6FF" font-size="20" font-family="Consolas, Monaco, monospace">apk/edit/xml/save/sign/export</text>
  <rect x="1036" y="526" width="244" height="44" rx="14" fill="#0C2430"/>
  <text x="1076" y="555" fill="#CFF2FF" font-size="22" font-family="Segoe UI, Arial, sans-serif" font-weight="600">Phone. Terminal. Power.</text>
</svg>
